<svg xmlns="http://www.w3.org/2000/svg" viewBox="0 0 14 8" width="16" height="16">
  <path fill-opacity=".392" d="m3.8594 4c-2.1381 0-3.8594 1.7213-3.8594 3.8594v.28125c0 2.1381 1.7213 3.8594 3.8594 3.8594h6.2812c2.1381 0 3.8594-1.7213 3.8594-3.8594v-.28125c0-2.1381-1.7213-3.8594-3.8594-3.8594zm-.85938 3a1 1 0 0 1 1 1 1 1 0 0 1 -1 1 1 1 0 0 1 -1-1 1 1 0 0 1 1-1zm4 0a1 1 0 0 1 1 1 1 1 0 0 1 -1 1 1 1 0 0 1 -1-1 1 1 0 0 1 1-1zm4 0a1 1 0 0 1 1 1 1 1 0 0 1 -1 1 1 1 0 0 1 -1-1 1 1 0 0 1 1-1z" transform="translate(0 -4)" fill="#000000"/>
</svg>