<svg xmlns="http://www.w3.org/2000/svg" viewBox="0 0 14 14" width="16" height="16">
  <path fill-opacity=".588" d="m6.9844 1.002a1.0001 1.0001 0 0 0 -.69141.29102l-3 3a1 1 0 0 0 0 1.4141 1 1 0 0 0 1.4141 0l2.293-2.293 2.293 2.293a1 1 0 0 0 1.4141 0 1 1 0 0 0 0-1.4141l-3-3a1.0001 1.0001 0 0 0 -.72266-.29102zm3 6.998a1 1 0 0 0 -.69141.29297l-2.293 2.293-2.293-2.293a1 1 0 0 0 -.7207-.29102 1 1 0 0 0 -.69336.29102 1 1 0 0 0 0 1.4141l3 3a1.0001 1.0001 0 0 0 1.4141 0l3-3a1 1 0 0 0 0-1.4141 1 1 0 0 0 -.72266-.29297z" fill="#000000"/>
</svg>